<?xml version="1.0" encoding="utf-8"?>
<!-- Generator: Adobe Illustrator 24.3.0, SVG Export Plug-In . SVG Version: 6.00 Build 0)  -->
<svg version="1.1" id="Шар_1" xmlns="http://www.w3.org/2000/svg" xmlns:xlink="http://www.w3.org/1999/xlink" x="0px" y="0px"
	 viewBox="0 0 359.9 408.9" style="enable-background:new 0 0 359.9 408.9;" xml:space="preserve">
<style type="text/css">
	.st0{fill:#FFFFFF;}
</style>
<g id="Шар_2_1_">
	<g id="Шар_1-2">
		<path class="st0" d="M77.6,408.9c-7.7-1.9-14.9-4.7-20.7-10.4c-7.8-7.7-10.4-17.3-11.3-27.8c-3.3-41.4-6.8-82.7-10.2-124.1
			c-2.8-33.8-5.6-67.6-8.3-101.4c-0.7-8.1-1.3-16.2-2.2-24.2c-0.3-1.7-1.3-3.1-2.8-4C7.9,110.5-1.1,96.4,0.1,82.1
			C1.5,65.5,12,52.8,27.8,49c3.5-0.7,7.1-1.1,10.7-1c17.6-0.1,35.2,0,52.8,0H96c0-3.8,0-7.2,0-10.7c0.2-21.8,15.6-37.2,37.4-37.3
			c31.1-0.1,62.1-0.1,93.2,0c21.8,0.1,37.2,15.5,37.4,37.2c0,3.4,0,6.8,0,10.7h4.7c18,0,36-0.1,54,0c17.6,0.1,30.9,9.9,35.8,26.3
			c5,16.6-3.5,35.2-19.5,42.1c-2.6,1.1-3.9,2.3-4.1,5.3c-2.2,27.8-4.6,55.7-6.9,83.5c-2.3,27.4-4.6,54.9-6.9,82.3
			c-2.3,27.3-4.7,54.6-6.6,81.9c-1,13.4-4.5,25.3-16.4,32.9c-4.7,3-10.4,4.4-15.6,6.5L77.6,408.9z M49.1,120.1
			c2.2,26.2,4.3,52.2,6.4,78.1c2.5,30.5,5.1,61,7.7,91.4c2.2,27.2,4.4,54.3,6.7,81.5c0.9,10.2,5,13.8,15.2,13.8H275
			c1.2,0,2.4,0,3.6-0.1c5.7-0.3,10.3-4.6,11-10.3c0.3-2.2,0.5-4.5,0.7-6.7c1.7-20.7,3.4-41.3,5.1-62c2.3-27.7,4.6-55.4,6.9-83.1
			c2-24.1,4-48.2,6-72.4c0.8-10,1.6-20.1,2.5-30.3L49.1,120.1z M180,71.9H39.6c-1.6-0.1-3.2,0-4.8,0.1c-6.5,0.6-11.3,6.4-10.7,13
			c0.1,1.4,0.5,2.7,1.1,3.9c2.6,5.5,7.4,7,13.2,7c94.4-0.1,188.8-0.1,283.2,0c1.2,0,2.4,0,3.6-0.1c6.6-0.6,11.4-6.5,10.7-13
			c-0.5-5.7-5-10.2-10.7-10.7c-1.6-0.1-3.2-0.2-4.8-0.1L180,71.9z M240,47.8c0-3.7,0-7,0-10.3c-0.1-8.8-4.8-13.5-13.6-13.5
			c-11.1,0-22.1,0-33.2,0c-20,0-40,0-59.9,0c-7,0-12.2,3.7-13,9.9c-0.6,4.5-0.1,9.2-0.1,13.9L240,47.8z"/>
		<path class="st0" d="M96.5,171.2c-0.2-3-0.5-6.1-0.5-9.2c0.4-6.6,6.1-11.7,12.7-11.3c5.8,0.3,10.5,4.8,11.2,10.5
			c0.9,13,1.6,26,2.4,39c2,32.5,4,65,6.1,97.5c1.1,18.4,2.4,36.9,3.4,55.3c0.4,8-4.4,13.7-11.6,13.9c-6.9,0.2-11.9-5-12.4-12.8
			c-2.8-45.4-5.7-90.7-8.5-136.1C98.4,202.5,97.5,186.8,96.5,171.2L96.5,171.2z"/>
		<path class="st0" d="M263.8,164.7c-2.5,40.6-5.1,81.2-7.6,121.8c-1.4,22.7-2.8,45.4-4.2,68.1c-0.6,9.2-8.6,14.8-16.6,11.5
			c-5-2-7.7-6.6-7.4-12.9c0.8-14.2,1.7-28.4,2.6-42.6c1.5-24,3-48,4.5-72c1.6-25.7,3.2-51.5,4.8-77.2c0.3-6.6,5.8-11.7,12.4-11.4
			c0,0,0,0,0.1,0c6.6,0.3,11.4,5.5,11.5,12.4C263.9,163.2,263.9,164,263.8,164.7L263.8,164.7z"/>
		<path class="st0" d="M192,258.5c0,31.1,0,62.3,0,93.4c0,1.5,0,2.9-0.1,4.4c-0.9,6.6-6.9,11.2-13.5,10.3c-5.4-0.7-9.6-5-10.3-10.4
			c-0.1-1.5-0.1-2.9-0.1-4.4V165c0-9.5,4.5-15.1,12.1-15.1s11.9,5.6,11.9,15.2V258.5z"/>
	</g>
</g>
</svg>
