<?xml version="1.0" encoding="utf-8"?>
<!-- Generator: Adobe Illustrator 24.3.0, SVG Export Plug-In . SVG Version: 6.00 Build 0)  -->
<svg version="1.1" id="Шар_1" xmlns="http://www.w3.org/2000/svg" xmlns:xlink="http://www.w3.org/1999/xlink" x="0px" y="0px"
	 viewBox="0 0 400.3 398.2" style="enable-background:new 0 0 400.3 398.2;" xml:space="preserve">
<style type="text/css">
	.st0{fill:#fff;}
</style>
<path class="st0" d="M0,82.9c2.1-6.2,3.4-13,6.6-18.6C16.1,47.6,31,39,50.2,38.9c28.9-0.2,57.8-0.1,86.8,0c6.7,0,11.2,4.1,11.3,9.8
	s-4.7,10-11.6,10c-28.4,0-56.8,0-85.2,0c-15.5,0-26.7,8.4-30.6,22.8c-0.7,3-1.1,6.1-1,9.3c0,85.1,0,170.1,0,255.2
	c0,15.9,8,27.1,22.2,31c3.3,0.9,6.6,1.3,10,1.2c91.7,0.1,183.4,0.1,275.1,0c19.5,0,32.2-12.8,32.2-32.4c0-28.3,0-56.5,0-84.8
	c0-5.7,3-9.9,7.6-10.9c5.3-1.2,10.6,2.1,11.9,7.4c0.2,0.7,0.2,1.4,0.3,2c0.2,7.9,0.1,15.9,0.1,23.8c0,22.5,0.3,45.1-0.2,67.6
	c-0.5,25-21.7,46-46.7,47c-1.8,0.1-3.6,0.1-5.5,0.1c-91.6,0-183.2,0-274.7,0c-20.1,0-35.7-8-45.6-25.5C3.4,367,2.1,360.2,0,354
	L0,82.9L0,82.9z"/>
<path class="st0" d="M344,0c11,0,21.6,4.1,29.6,11.6c4.6,4.2,9,8.7,13.4,13.2c17.4,18,17.8,44.2,0.9,62.7c-1,1.2-2.1,2.3-3.3,3.4
	c-57.5,57.5-115,115-172.4,172.5c-3.1,3.2-7,5.4-11.2,6.5c-26,7.1-51.9,14.3-77.8,21.6c-3.5,1-6.8,1.6-10.2-0.3
	c-4.2-2.4-5.9-6.8-4.4-12.1c6.1-22.3,12.9-44.5,18.2-67c3.2-13.5,9.8-23.8,19.6-33.5c54.8-54.3,109.2-109,163.7-163.6
	C319.4,5.6,330.4,0.2,344,0z M301.7,53.2L157.2,197.8l45.3,45.3L347.1,98.5L301.7,53.2z M315.5,36.9l47.6,47.7
	c2.8-3,5.9-6.2,8.9-9.4c1.3-1.3,2.4-2.7,3.6-4.2c6.2-8.3,6.4-21.2-0.3-29.1c-5.1-6.1-10.7-11.7-16.8-16.8c-7.7-6.3-17-7.3-25.5-2.4
	C326.5,26.5,321.2,32.2,315.5,36.9z M146.3,216.8l-14.2,51.3l51.2-14.2L146.3,216.8z"/>
</svg>
