<?xml version="1.0" encoding="utf-8"?>
<!-- Generator: Adobe Illustrator 24.3.0, SVG Export Plug-In . SVG Version: 6.00 Build 0)  -->
<svg version="1.1" id="Шар_1" xmlns="http://www.w3.org/2000/svg" xmlns:xlink="http://www.w3.org/1999/xlink" x="0px" y="0px"
	 viewBox="0 0 52 11.3" style="enable-background:new 0 0 52 11.3;" xml:space="preserve">
<style type="text/css">
	.st0{fill:#71AECC;}
	.st1{fill:#EDE474;}
</style>
<g id="Шар_2_1_">
	<g id="Шар_1-2">
		<path class="st0" d="M1.1,0.1h0.8v2.4h1.3v0.7H1.9v5.7H1.1V3.2H0V2.5h1.1V0.1z"/>
		<path class="st0" d="M7.5,2.3c0.9,0,1.8,0.4,2.4,1.1c0.6,0.6,0.9,1.4,0.9,2.3c0,0.9-0.3,1.7-0.9,2.3C9.3,8.7,8.4,9,7.5,9
			C6.6,9,5.7,8.7,5.1,8C4.5,7.4,4.2,6.6,4.2,5.7C4.1,4.9,4.4,4,5,3.4C5.6,2.7,6.5,2.3,7.5,2.3z M7.5,3.1c-0.7,0-1.3,0.3-1.8,0.8
			C5.2,4.4,5,5,5,5.7C5,6.2,5.1,6.6,5.3,7c0.2,0.4,0.5,0.7,0.9,0.9C6.6,8.1,7,8.2,7.5,8.2c0.4,0,0.9-0.1,1.2-0.3
			C9.1,7.7,9.4,7.4,9.6,7C9.9,6.6,10,6.2,10,5.7C10,5,9.7,4.4,9.3,3.9C8.8,3.4,8.2,3.1,7.5,3.1z"/>
		<path class="st1" d="M16.3,1.2c1.1,0,2.2,0.4,2.9,1.3c0.7,0.8,1.1,1.7,1.1,2.8c0,1.1-0.4,2.1-1.1,2.8c-0.7,0.8-1.8,1.2-2.9,1.2
			c-1.1,0-2.1-0.4-2.9-1.2c-0.7-0.8-1.1-1.8-1.1-2.8c0-1,0.4-2,1.1-2.8C14.1,1.7,15.2,1.2,16.3,1.2z M16.3,2.2
			c-0.8,0-1.6,0.3-2.1,0.9c-0.6,0.6-0.9,1.4-0.9,2.2c0,0.5,0.1,1.1,0.4,1.6c0.2,0.5,0.6,0.9,1.1,1.1c0.9,0.5,2.1,0.5,3,0
			c0.5-0.3,0.9-0.7,1.1-1.2c0.3-0.5,0.4-1,0.4-1.6c0-0.8-0.3-1.6-0.9-2.2C17.9,2.5,17.1,2.2,16.3,2.2L16.3,2.2z"/>
		<path class="st0" d="M27.5,6.7l0.7,0.4c-0.2,0.4-0.5,0.8-0.8,1.1c-0.3,0.3-0.6,0.5-1,0.6C26,8.9,25.5,9,25.1,9
			c-0.9,0.1-1.8-0.3-2.4-1c-1.1-1.3-1.2-3.2-0.1-4.5c0.6-0.8,1.5-1.2,2.5-1.2c1,0,2,0.4,2.6,1.2c0.5,0.6,0.7,1.4,0.7,2.2h-5.7
			c0,0.7,0.2,1.3,0.7,1.8c0.4,0.5,1,0.7,1.7,0.7c0.6,0,1.2-0.2,1.7-0.6C27,7.4,27.3,7.1,27.5,6.7z M27.5,5c-0.1-0.4-0.2-0.7-0.5-1
			c-0.2-0.3-0.5-0.5-0.8-0.6c-0.3-0.2-0.7-0.2-1.1-0.2c-0.6,0-1.2,0.2-1.6,0.6c-0.4,0.3-0.6,0.8-0.8,1.3H27.5z"/>
		<path class="st0" d="M30.6,0.1h0.8v2.4h1.3v0.7h-1.3v5.7h-0.8V3.2h-1.1V2.5h1.1V0.1z"/>
		<path class="st0" d="M34,0h0.8v3.6c0.3-0.4,0.7-0.7,1.1-1c0.4-0.2,0.8-0.3,1.3-0.3c0.4,0,0.9,0.1,1.3,0.4c0.4,0.2,0.7,0.6,0.8,1
			c0.2,0.6,0.3,1.3,0.3,1.9v3.3h-0.9v-3c0-0.5,0-1-0.1-1.5c-0.1-0.4-0.3-0.7-0.5-1C37.8,3.1,37.4,3,37,3c-0.5,0-1,0.2-1.3,0.5
			c-0.4,0.3-0.7,0.7-0.8,1.2c-0.1,0.6-0.1,1.2-0.1,1.7v2.3H34V0z"/>
		<path class="st0" d="M46.6,6.7l0.7,0.4c-0.2,0.4-0.5,0.8-0.8,1.1c-0.3,0.3-0.6,0.5-1,0.6C45.1,8.9,44.7,9,44.3,9
			c-0.9,0.1-1.8-0.3-2.4-1C41.3,7.4,41,6.5,41,5.7c0-0.8,0.3-1.6,0.7-2.2c0.6-0.8,1.5-1.2,2.5-1.2c1,0,2,0.4,2.6,1.2
			c0.5,0.6,0.7,1.4,0.7,2.2h-5.8c0,0.7,0.2,1.3,0.7,1.8C43,8,43.6,8.3,44.2,8.2c0.3,0,0.6-0.1,1-0.2c0.3-0.1,0.5-0.2,0.8-0.4
			C46.2,7.4,46.5,7.1,46.6,6.7z M46.6,5c-0.1-0.4-0.3-0.7-0.5-1c-0.2-0.3-0.5-0.5-0.8-0.6c-0.3-0.2-0.7-0.2-1.1-0.2
			c-0.6,0-1.2,0.2-1.6,0.6C42.3,4.1,42,4.5,41.9,5H46.6z"/>
		<path class="st0" d="M48.8,2.5h0.8v0.9c0.2-0.3,0.5-0.6,0.8-0.8c0.3-0.2,0.6-0.3,0.9-0.3c0.3,0,0.5,0.1,0.7,0.2l-0.4,0.7
			c-0.1-0.1-0.3-0.1-0.4-0.1c-0.3,0-0.6,0.1-0.8,0.3c-0.3,0.3-0.5,0.7-0.6,1.1c-0.1,0.7-0.2,1.5-0.2,2.2v2.2h-0.8L48.8,2.5z"/>
		<path class="st1" d="M16.3,9.3c0,0,3.1,0.9,3.7,2c0,0,0.3-7.2,0.3-6C20.3,6.2,16.3,9.3,16.3,9.3z"/>
		<rect x="14.4" y="4.5" class="st0" width="3.9" height="0.6"/>
		<rect x="14.4" y="5.7" class="st1" width="2.3" height="0.6"/>
	</g>
</g>
</svg>
