<svg xmlns="http://www.w3.org/2000/svg" viewBox="0 0 8.01 10.08"><defs><style>.cls-1{fill:#ede474;}.cls-2{fill:#76beea;}</style></defs><g id="Шар_2" data-name="Шар 2"><g id="Шар_1-2" data-name="Шар 1"><path class="cls-1" d="M4,0A3.83,3.83,0,0,1,7,1.29,4,4,0,0,1,8,4.06,4,4,0,0,1,6.89,6.88,3.74,3.74,0,0,1,4,8.08a3.77,3.77,0,0,1-2.89-1.2A4,4,0,0,1,0,4.06,4,4,0,0,1,1.06,1.29,3.8,3.8,0,0,1,4,0ZM4,1a2.85,2.85,0,0,0-2.12.91A3.07,3.07,0,0,0,1,4.11a3.13,3.13,0,0,0,.41,1.56A2.8,2.8,0,0,0,2.5,6.79a3.13,3.13,0,0,0,3,0A2.86,2.86,0,0,0,6.61,5.64,3,3,0,0,0,7,4.08a3.07,3.07,0,0,0-.89-2.2A2.81,2.81,0,0,0,4,1Z"/><path class="cls-1" d="M4,8.08s3.08.93,3.68,2c0,0,.32-7.21.32-6C8,5,4,8.08,4,8.08Z"/><rect class="cls-2" x="2.07" y="3.26" width="3.87" height="0.63"/><rect class="cls-1" x="2.07" y="4.44" width="2.25" height="0.63"/></g></g></svg>